<svg width="32" height="32" viewBox="0 0 32 32" fill="none" xmlns="http://www.w3.org/2000/svg">
<g clip-path="url(#clip0_3_376)">
<path d="M16 6.16198C19.2044 6.16198 19.5835 6.17437 20.8492 6.232C22.0191 6.28535 22.6545 6.48065 23.0775 6.64499C23.6377 6.86268 24.0373 7.12276 24.4574 7.54242C24.8776 7.96255 25.1377 8.3622 25.3549 8.92238C25.5192 9.34537 25.7145 9.98081 25.7679 11.1507C25.8255 12.4159 25.8379 12.7955 25.8379 15.9999C25.8379 19.2042 25.8255 19.5834 25.7679 20.849C25.7145 22.0189 25.5192 22.6544 25.3549 23.0774C25.1372 23.6375 24.8771 24.0372 24.4574 24.4573C24.0373 24.8774 23.6377 25.1375 23.0775 25.3547C22.6545 25.5191 22.0191 25.7144 20.8492 25.7677C19.584 25.8254 19.2044 25.8378 16 25.8378C12.7957 25.8378 12.416 25.8254 11.1508 25.7677C9.98095 25.7144 9.34551 25.5191 8.92252 25.3547C8.36234 25.1371 7.96269 24.877 7.54255 24.4573C7.12242 24.0372 6.86234 23.6375 6.64513 23.0774C6.48079 22.6544 6.28549 22.0189 6.23214 20.849C6.1745 19.5839 6.16212 19.2042 6.16212 15.9999C6.16212 12.7955 6.1745 12.4163 6.23214 11.1507C6.28549 9.98081 6.48079 9.34537 6.64513 8.92238C6.86281 8.3622 7.1229 7.96255 7.54255 7.54242C7.96221 7.12229 8.36234 6.8622 8.92252 6.64499C9.34551 6.48065 9.98095 6.28535 11.1508 6.232C12.416 6.17437 12.7957 6.16198 16 6.16198V6.16198ZM16 3.99987C12.7409 3.99987 12.3322 4.01368 11.0522 4.07227C9.77517 4.13038 8.90251 4.33331 8.13941 4.63007C7.35011 4.93683 6.68085 5.34696 6.01397 6.01432C5.34662 6.68167 4.93649 7.35045 4.62972 8.13975C4.33344 8.90285 4.13052 9.77503 4.0724 11.0521C4.01381 12.332 4 12.7407 4 15.9999C4 19.259 4.01381 19.6677 4.0724 20.9476C4.13052 22.2247 4.33344 23.0974 4.6302 23.8605C4.93696 24.6498 5.34709 25.319 6.01445 25.9859C6.6818 26.6533 7.35059 27.0634 8.13989 27.3701C8.90299 27.6669 9.77564 27.8698 11.0527 27.9279C12.3326 27.9865 12.7413 28.0003 16.0005 28.0003C19.2596 28.0003 19.6683 27.9865 20.9482 27.9279C22.2253 27.8698 23.098 27.6669 23.8611 27.3701C24.6504 27.0634 25.3196 26.6533 25.9865 25.9859C26.6539 25.3185 27.064 24.6498 27.3708 23.8605C27.6675 23.0974 27.8704 22.2247 27.9286 20.9476C27.9871 19.6677 28.001 19.259 28.001 15.9999C28.001 12.7407 27.9871 12.332 27.9286 11.0521C27.8704 9.77503 27.6675 8.90238 27.3708 8.13928C27.064 7.34998 26.6539 6.68072 25.9865 6.01384C25.3192 5.34648 24.6504 4.93635 23.8611 4.62959C23.098 4.33283 22.2253 4.12991 20.9482 4.07179C19.6683 4.0132 19.2596 3.99939 16.0005 3.99939L16 3.99987Z" fill="#ADADAD"/>
<path d="M16 9.83801C12.5966 9.83801 9.83807 12.597 9.83807 16C9.83807 19.403 12.597 22.1619 16 22.1619C19.403 22.1619 22.162 19.403 22.162 16C22.162 12.597 19.403 9.83801 16 9.83801V9.83801ZM16 20.0003C13.7908 20.0003 12.0002 18.2092 12.0002 16.0004C12.0002 13.7916 13.7912 12.0006 16 12.0006C18.2088 12.0006 19.9999 13.7916 19.9999 16.0004C19.9999 18.2092 18.2088 20.0003 16 20.0003Z" fill="#ADADAD"/>
<path d="M22.4059 11.0341C23.2011 11.0341 23.8458 10.3894 23.8458 9.59416C23.8458 8.79888 23.2011 8.15417 22.4059 8.15417C21.6106 8.15417 20.9659 8.79888 20.9659 9.59416C20.9659 10.3894 21.6106 11.0341 22.4059 11.0341Z" fill="#ADADAD"/>
</g>
<defs>
<clipPath id="clip0_3_376">
<rect width="24" height="24" fill="white" transform="translate(4 4)"/>
</clipPath>
</defs>
</svg>
