<svg fill="none" height="28" viewBox="0 0 148 28" width="148" xmlns="http://www.w3.org/2000/svg" xmlns:xlink="http://www.w3.org/1999/xlink"><clipPath id="a"><path d="m0 .234131h148v27.5318h-148z"/></clipPath><g clip-path="url(#a)"><path d="m29.1435 8.95869c0 4.81141-4.6189 8.61501-9.7289 8.61501h-9.85028v10.104h-9.56432v-27.411587h19.8234c5.8047 0 9.3201 3.207587 9.3201 8.687227zm-9.5643-.08287c0-.93554-.6542-1.37124-1.554-1.37124h-8.46088v2.82002h8.46088c.8998 0 1.554-.58807 1.554-1.44878" fill="#333"/><g fill="#0071bc"><path d="m45.7389 2.23887c2.428 0 4.8015.68978 6.8203 1.98212 2.0189 1.29233 3.5923 3.12917 4.5215 5.27825.9292 2.14906 1.1723 4.51386.6986 6.79526-.4737 2.2815-1.6429 4.3771-3.3598 6.0219-1.7168 1.6449-3.9042 2.765-6.2856 3.2188s-4.8497.2209-7.0929-.6693c-2.2432-.8901-4.1605-2.3976-5.5094-4.3317s-2.0689-4.208-2.0689-6.5342c.0037-3.1181 1.2982-6.10757 3.5997-8.31245 2.3014-2.20488 5.4218-3.44514 8.6765-3.44868zm0-2.004739c-2.8419 0-5.6199.807359-7.9829 2.319969-2.3629 1.51262-4.2046 3.66256-5.2921 6.17795-1.0876 2.51535-1.3721 5.28325-.8177 7.95355.5544 2.6704 1.9229 5.1232 3.9324 7.0484 2.0096 1.9252 4.5698 3.2363 7.3571 3.7674 2.7873.5312 5.6764.2586 8.3019-.7833 2.6256-1.0419 4.8697-2.8063 6.4485-5.0701 1.5789-2.2638 2.4216-4.9253 2.4216-7.648 0-3.6509-1.5138-7.15232-4.2085-9.73393s-6.3494-4.031939-10.1603-4.031939"/><path d="m45.7568 25.24c-6.0098.8099-10.8896-3.5872-10.8812-9.8019.0084-6.21471 4.9105-11.92823 10.9203-12.73681s10.8896 3.58715 10.8812 9.80181c-.0084 6.2148-4.9105 11.9283-10.9203 12.7369zm.0475-24.465941c-7.0477.948911-12.7715 7.627381-12.7855 14.913941-.0139 7.2866 5.6862 12.4294 12.7338 11.4792 7.0477-.9503 12.7729-7.6274 12.7883-14.9153.0153-7.28793-5.689-12.429426-12.7366-11.477841"/><path d="m45.7568 25.24c-6.0098.8099-10.8896-3.5872-10.8812-9.8019.0084-6.21471 4.9105-11.92823 10.9203-12.73681s10.8896 3.58715 10.8812 9.80181c-.0084 6.2148-4.9105 11.9283-10.9203 12.7369zm.0475-24.465941c-7.0477.948911-12.7715 7.627381-12.7855 14.913941-.0139 7.2866 5.6862 12.4294 12.7338 11.4792 7.0477-.9503 12.7729-7.6274 12.7883-14.9153.0153-7.28793-5.689-12.429426-12.7366-11.477841"/><path d="m44.2224 25.0957c-4.4864.6041-7.8247-2.9603-7.6377-8.4774.2036-5.9955 4.4947-12.06053 9.5671-13.51998.3896-.11374.788-.1982 1.1913-.2526 4.4864-.60543 7.8248 2.96034 7.6392 8.47738-.2037 5.9955-4.4962 12.0605-9.5671 13.52-.3903.1131-.789.1976-1.1928.2526zm3.3872-24.154482c-.4356.060612-.8663.149932-1.289.267302l-.2246.06415c-5.8982 1.76818-10.8506 8.81153-11.0808 15.79733-.2204 6.47 3.6801 10.6372 8.9366 9.9302.4399-.0594.8749-.1487 1.3016-.2673l.1967-.0561c5.9051-1.7615 10.8673-8.8115 11.1044-15.8028.2204-6.46992-3.6801-10.637115-8.9379-9.930109"/><path d="m43.2794 25.1224c-3.2337.4357-5.3904-2.5728-5.0221-7.5298.4352-5.8151 4.185-12.14745 8.3701-14.11076.3143-.15019.6409-.27536.9766-.37422.2625-.07777.5313-.13498.8035-.17108 3.2323-.43569 5.3904 2.5741 5.0221 7.52986-.4353 5.8164-4.1851 12.1474-8.3702 14.1107-.3142.1502-.6408.2753-.9765.3742-.2594.0773-.5248.1345-.7938.1711zm5.5647-24.08502c-.3154.04412-.627.11114-.9318.20048-.3653.10901-.722.243-1.0672.40095l-.1326.06281-.0362.01738c-4.8673 2.34956-9.2072 9.7003-9.7122 16.4817-.4353 5.811 2.0841 9.33 5.8716 8.8208.3156-.043.6272-.1096.9319-.1991.3577-.1069.7069-.2382 1.0449-.3929l.06-.0281.1395-.0642c4.8645-2.3535 9.2072-9.7016 9.7066-16.48028.4366-5.81108-2.0842-9.32874-5.8703-8.82087"/><path d="m42.7507 25.1476c-2.1944.2994-3.4109-2.3562-2.8389-6.8883.7212-5.6827 3.994-12.20618 7.296-14.53569.2419-.17424.4986-.32892.7673-.46243.197-.1001.4029-.18329.6152-.24859.1511-.04641.306-.08039.4631-.10157 2.193-.2967 3.4123 2.3549 2.8417 6.88963-.7212 5.68275-3.994 12.20485-7.2974 14.53575-.2419.1742-.4986.3289-.7673.4624-.1963.0991-.4012.1818-.6124.2473-.1516.0461-.307.0801-.4645.1015zm6.8468-24.13975c-.1847.02468-.3668.06493-.5441.12028-.2484.07565-.4892.17226-.7198.28869-.2852.14378-.5593.30679-.8203.48782l-.0809.05747-.0684.04811c-3.8502 2.7759-7.6363 10.34718-8.4748 16.97348-.6752 5.3139.7492 8.4199 3.316 8.0711.1852-.0245.3677-.0648.5455-.1203.2483-.0759.4891-.1725.7198-.2887.2912-.1461.5709-.3122.837-.4971l.1395-.0963c3.8489-2.7759 7.635-10.3471 8.4762-16.97346.6738-5.31257-.7505-8.419918-3.3187-8.06976"/><path d="m42.7186 25.1197c-2.193.2954-3.4123-2.3576-2.8389-6.8896.7212-5.6841 3.9954-12.20491 7.2974-14.53576.2426-.17371.4991-.32878.7672-.46376.1975-.09849.4033-.18076.6153-.24592.1509-.04717.3059-.0816.4631-.10291 2.193-.28868 3.4122 2.35758 2.8389 6.89097-.7226 5.68408-3.9954 12.20358-7.2974 14.53438-.2426.1737-.4992.3288-.7673.4638-.1973.0987-.4031.181-.6152.2459-.1511.0467-.306.0811-.4631.1029zm6.8468-24.142457c-.184.025827-.3655.066057-.5427.120287-.2486.0778-.4899.17572-.7212.29269-.2852.14378-.5593.3068-.8203.48782l-.0377.02673-.1158.08286c-3.8488 2.77724-7.6307 10.34447-8.4706 16.97347-.6738 5.3139.7506 8.42 3.3188 8.0711.184-.0258.3655-.066.5427-.1203.2482-.0767.489-.1737.7198-.29.291-.1469.5708-.3134.837-.4985l.1284-.0909c3.8516-2.7732 7.6405-10.3458 8.4803-16.97347.6752-5.31524-.7505-8.41992-3.3187-8.072431"/></g><path d="m63.9621 20.4834h14.9268c1.2667 0 1.8805-.5479 1.8805-1.4487 0-.8621-.6138-1.41-1.9223-1.41h-6.791c-4.7822 0-8.666-3.1328-8.666-8.65385 0-6.34435 4.5367-8.649805 9.1152-8.649805h16.9161v7.239795h-14.5864c-1.1035 0-1.8805.3916-1.8805 1.36991 0 1.01841.777 1.44875 1.8805 1.44875h6.3766c5.4769 0 9.1152 3.094 9.1152 8.6151 0 5.2123-4.0875 8.7326-9.4011 8.7326h-17.0864z" fill="#333"/><path d="m92.909 20.4834h14.911c1.267 0 1.881-.548 1.881-1.4488 0-.862-.614-1.41-1.921-1.41h-6.78c-4.782 0-8.6658-3.1327-8.6658-8.65378 0-6.34435 4.5381-8.655146 9.1148-8.655146h16.922v7.245146h-14.598c-1.103 0-1.879.39159-1.879 1.3699 0 1.01841.776 1.44878 1.879 1.44878h6.377c5.477 0 9.115 3.094 9.115 8.615 0 5.2124-4.087 8.7327-9.401 8.7327h-17.0848z" fill="#333"/><path d="m132.303 7.52072v2.85878h15.697v7.2451h-15.697v2.8976h15.697v7.205h-25.261v-27.411526h25.261v7.205046z" fill="#333"/></g></svg>