<svg width="32" height="32" viewBox="0 0 32 32" fill="none" xmlns="http://www.w3.org/2000/svg">
<g clip-path="url(#clip0_3_376)">
<path d="M11.862 26C21.296 26 26.456 18.3063 26.456 11.6344C26.456 11.4159 26.451 11.1983 26.441 10.9818C27.442 10.2691 28.313 9.38025 29 8.36736C28.081 8.76897 27.092 9.03967 26.054 9.16173C27.113 8.53667 27.926 7.5474 28.309 6.36913C27.318 6.94793 26.22 7.36825 25.052 7.59465C24.117 6.61423 22.784 6 21.309 6C18.476 6 16.179 8.26105 16.179 11.0487C16.179 11.4454 16.224 11.8303 16.312 12.1994C12.049 11.9888 8.269 9.97972 5.74 6.9243C5.299 7.67044 5.045 8.53765 5.045 9.46195C5.045 11.2141 5.951 12.7595 7.327 13.6641C6.486 13.6385 5.695 13.4112 5.004 13.0322C5.003 13.0529 5.003 13.0745 5.003 13.0962C5.003 15.5413 6.771 17.5828 9.118 18.0455C8.687 18.1606 8.234 18.2227 7.766 18.2227C7.436 18.2227 7.114 18.1902 6.802 18.1311C7.455 20.1372 9.348 21.597 11.594 21.6374C9.838 22.9918 7.627 23.799 5.224 23.799C4.81 23.799 4.402 23.7754 4 23.7291C6.27 25.1613 8.965 25.997 11.862 25.997" fill="#ADADAD"/>
</g>
<defs>
<clipPath id="clip0_3_376">
<rect width="25" height="20" fill="white" transform="translate(4 6)"/>
</clipPath>
</defs>
</svg>
